<svg id="Layer_1" enable-background="new 0 0 512 512" viewBox="0 0 512 512" xmlns="http://www.w3.org/2000/svg"><g><path d="m448.968 168.463v280.281c0 26.099-21.157 47.256-47.256 47.256h-291.423c-26.099 0-47.256-21.157-47.256-47.256v-385.488c-.001-26.099 21.156-47.256 47.256-47.256h195.188z" fill="#0263d1"/><path d="m448.968 168.463h-111.987c-17.399 0-31.504-14.105-31.504-31.504v-120.959z" fill="#4e92df"/><path d="m305.476 16v120.959c0 17.399 14.105 31.504 31.504 31.504h111.986" fill="#4e92df"/><g fill="#fff"><path d="m131.051 383.351v-94.082h30.304c8.307 0 15.783 1.877 22.428 5.661 6.615 3.753 11.814 9.076 15.537 15.968 3.723 6.861 5.599 14.552 5.63 23.074v4.338c0 8.614-1.815 16.337-5.446 23.167-3.63 6.83-8.768 12.153-15.383 16.029-6.615 3.846-13.998 5.784-22.121 5.846h-30.949zm22.674-76.577v59.132h7.876c6.522 0 11.506-2.307 14.983-6.953 3.507-4.615 5.261-11.506 5.261-20.644v-4.061c0-9.107-1.754-15.937-5.261-20.552-3.477-4.615-8.553-6.922-15.229-6.922z"/><path d="m296.233 338.248c0 9.168-1.692 17.29-5.107 24.367-3.384 7.045-8.215 12.491-14.491 16.306s-13.414 5.722-21.413 5.722c-8.03 0-15.137-1.846-21.321-5.538-6.215-3.661-11.045-8.953-14.522-15.783-3.446-6.861-5.292-14.706-5.446-23.597v-5.292c0-9.23 1.692-17.352 5.076-24.397s8.214-12.46 14.522-16.306c6.307-3.846 13.506-5.753 21.567-5.753 7.968 0 15.075 1.908 21.321 5.692s11.076 9.199 14.552 16.183c3.477 7.015 5.23 15.014 5.261 24.059v4.337zm-23.044-3.938c0-9.353-1.569-16.46-4.707-21.29-3.107-4.861-7.568-7.261-13.383-7.261-11.383 0-17.383 8.522-18.029 25.566l-.062 6.922c0 9.23 1.508 16.306 4.584 21.259 3.046 4.953 7.599 7.415 13.629 7.415 5.722 0 10.122-2.431 13.229-7.292s4.676-11.876 4.738-20.982v-4.337z"/><path d="m384.07 351.477c-.308 6.553-2.061 12.337-5.292 17.352-3.23 5.015-7.784 8.922-13.599 11.66-5.846 2.769-12.522 4.153-19.998 4.153-12.368 0-22.121-4.03-29.228-12.091s-10.645-19.413-10.645-34.119v-4.646c0-9.23 1.6-17.29 4.799-24.182 3.23-6.922 7.845-12.276 13.875-16.029 6.03-3.784 13.014-5.661 20.921-5.661 11.414 0 20.582 3.015 27.535 9.014 6.922 5.999 10.86 14.275 11.814 24.828h-22.613c-.185-5.722-1.6-9.814-4.338-12.337-2.707-2.492-6.83-3.723-12.399-3.723-5.63 0-9.784 2.092-12.399 6.307-2.615 4.246-4 10.983-4.123 20.244v6.645c0 10.03 1.261 17.198 3.753 21.505 2.523 4.307 6.861 6.461 13.045 6.461 5.199 0 9.168-1.231 11.937-3.661 2.769-2.461 4.215-6.369 4.4-11.722h22.555z"/></g></g></svg>