<svg xmlns="http://www.w3.org/2000/svg" version="1.1" xmlns:xlink="http://www.w3.org/1999/xlink" width="512" height="512" x="0" y="0" viewBox="0 0 64 64" style="enable-background:new 0 0 512 512" xml:space="preserve" fill-rule="evenodd"><g><linearGradient id="a" x1="0" x2="1" y1="0" y2="0" gradientTransform="matrix(46 0 0 78.611 337 362.817)" gradientUnits="userSpaceOnUse"><stop stop-opacity="1" stop-color="#49aeee" offset="0"></stop><stop stop-opacity="1" stop-color="#5dd5ef" offset="1"></stop></linearGradient><linearGradient id="b" x1="0" x2="1" y1="0" y2="0" gradientTransform="matrix(23 0 0 29.162 360 341.545)" gradientUnits="userSpaceOnUse"><stop stop-opacity="1" stop-color="#4eb3f2" offset="0"></stop><stop stop-opacity="1" stop-color="#1f77a9" offset="1"></stop></linearGradient><path fill="url(#a)" d="M365.121 329.879A2.996 2.996 0 0 0 363 329h-19a6.999 6.999 0 0 0-7 7v48a7 7 0 0 0 7 7h32a7 7 0 0 0 7-7v-35c0-.796-.316-1.559-.879-2.121z" transform="translate(-328 -328)" opacity="1" data-original="url(#a)"></path><path fill="url(#b)" d="M380 352a3 3 0 0 0 2.121-5.121l-17-17A3 3 0 0 0 360 332v17a3 3 0 0 0 3 3z" transform="translate(-328 -328)" opacity="1" data-original="url(#b)"></path></g></svg>