<svg clip-rule="evenodd" fill-rule="evenodd" stroke-linejoin="round" stroke-miterlimit="2" viewBox="0 0 64 64" xmlns="http://www.w3.org/2000/svg" xmlns:xlink="http://www.w3.org/1999/xlink"><linearGradient id="_Linear1" gradientTransform="matrix(62 0 0 68.468 329 286.454)" gradientUnits="userSpaceOnUse" x1="0" x2="1" y1="0" y2="0"><stop offset="0" stop-color="#1591df"/><stop offset="1" stop-color="#763aec"/></linearGradient><linearGradient id="_Linear2" gradientTransform="matrix(62 0 0 59.592 329 289.636)" gradientUnits="userSpaceOnUse" x1="0" x2="1" y1="0" y2="0"><stop offset="0" stop-color="#4eb3f2"/><stop offset="1" stop-color="#af73f4"/></linearGradient><g transform="translate(-328 -252)"><g><path d="m332 257c-1.657 0-3 1.343-3 3v44c0 3.866 3.134 7 7 7h48c3.866 0 7-3.134 7-7 0-7.843 0-25.157 0-33 0-3.866-3.134-7-7-7h-23.971s-8.187-6.368-8.187-6.368c-.527-.41-1.175-.632-1.842-.632z" fill="url(#_Linear1)"/></g><g><path d="m349.223 269h-17.223c-1.657 0-3 1.343-3 3v32c0 3.866 3.134 7 7 7h48c3.866 0 7-3.134 7-7 0-7.843 0-25.157 0-33 0-3.866-3.134-7-7-7h-25c-.51 0-1.011.13-1.457.378z" fill="url(#_Linear2)"/></g></g></svg>