<svg id="Layer_1" enable-background="new 0 0 512 512" viewBox="0 0 512 512" xmlns="http://www.w3.org/2000/svg"><g id="Layer_2_1_"><g id="Layer_1-2"><g id="PNG"><path d="m323.6 141c-13.3 0-24.1-10.8-24.1-24.1v-116.9h-165.3c-34.1 0-61.7 27.6-61.7 61.7v388.6c0 34.1 27.6 61.7 61.7 61.7h243.6c34.1 0 61.7-27.6 61.7-61.7v-309.3z" fill="#2b031a"/><g fill="#ea47a4"><path d="m323.6 141h115.9l-140-141v116.9c0 13.3 10.8 24.1 24.1 24.1z"/><path d="m184.5 481h143c1.9 0 3.5 1.6 3.5 3.5 0 1.9-1.6 3.5-3.5 3.5h-143c-1.9 0-3.5-1.6-3.5-3.5 0-1.9 1.6-3.5 3.5-3.5z"/><path d="m116.7 79.1h122.1c3.1 0 5.7 2.5 5.7 5.7 0 3.1-2.5 5.7-5.7 5.7h-122.1c-3.1 0-5.7-2.5-5.7-5.7 0-3.1 2.5-5.7 5.7-5.7z"/><path d="m116.7 57.1h91.7c3.1 0 5.7 2.5 5.7 5.7 0 3.1-2.5 5.7-5.7 5.7h-91.7c-3.1 0-5.7-2.5-5.7-5.7 0-3.1 2.5-5.7 5.7-5.7z"/><path d="m116.7 99.3h149.7c3.1 0 5.7 2.5 5.7 5.7 0 3.1-2.5 5.7-5.7 5.7h-149.7c-3.1 0-5.7-2.5-5.7-5.7 0-3.1 2.5-5.7 5.7-5.7z"/><path d="m197.3 466.1h117.4c2.1 0 3.8 1.7 3.8 3.8 0 2.1-1.7 3.8-3.8 3.8h-117.4c-2.1 0-3.8-1.7-3.8-3.8 0-2.1 1.7-3.8 3.8-3.8z"/><path d="m205.8 451.1h100.4c2.1 0 3.8 1.7 3.8 3.8 0 2.1-1.7 3.8-3.8 3.8h-100.4c-2.1 0-3.8-1.7-3.8-3.8 0-2.1 1.7-3.8 3.8-3.8z"/><path d="m165.4 242h25.9c17.6 0 26.2 9.8 26.2 27.7v11c0 17.9-8.6 27.7-26.2 27.7h-8.3v45.6h-17.6zm25.9 50.4c5.6 0 8.6-2.6 8.6-10.6v-13.3c0-8-3-10.6-8.6-10.6h-8.3v34.4h8.3z"/><path d="m227.1 242h22.1l17.1 67h.3v-67h15.7v112h-18.1l-21.1-81.8h-.3v81.8h-15.7z"/><path d="m294.2 327.4v-58.9c0-17.9 9-28.2 26.2-28.2s26.2 10.2 26.2 28.2v9.6h-16.6v-10.7c0-8-3.5-11-9.1-11s-9.1 3-9.1 11v61.3c0 8 3.5 10.9 9.1 10.9s9.1-2.9 9.1-10.9v-21.9h-8.8v-16h25.4v36.6c0 17.9-9 28.2-26.2 28.2s-26.2-10.2-26.2-28.2z"/></g></g></g></g></svg>