<svg id="Apple" viewBox="0 0 512 512" xmlns="http://www.w3.org/2000/svg"><path d="m454.26 23.47h-396.52a34.21 34.21 0 0 0 -34.11 34.11v396.52a34.21 34.21 0 0 0 34.11 34.11h396.52a34.21 34.21 0 0 0 34.11-34.11v-396.52a34.21 34.21 0 0 0 -34.11-34.11zm-290.4 396h-68.47v-221.34h68.47zm-34.23-252.38a40.55 40.55 0 1 1 40.55-40.55 40.54 40.54 0 0 1 -40.55 40.55zm293.29 252.43h-68.92v-121.42s1.61-24.34-11.41-37c-11.84-11.49-28.3-8.68-28.3-8.68s-18.31.46-28.3 16c-6 9.33-7.76 22.05-8.21 30.7v120.4h-68.48v-221.39h68.47v26.66c6.2-8.81 17.07-20.54 32.86-26.66 24-9.28 44.61-7.92 62.32-2.58 22.21 6.69 34.88 25.36 39.47 34.54 6.17 12.32 10.5 28.75 10.5 49.3z" fill="#0073b6"/></svg>