<svg id="Layer_1" enable-background="new 0 0 512 512" viewBox="0 0 512 512" xmlns="http://www.w3.org/2000/svg"><g><path d="m448.968 168.463v280.281c0 26.099-21.157 47.256-47.256 47.256h-291.423c-26.099 0-47.256-21.157-47.256-47.256v-385.488c-.001-26.099 21.156-47.256 47.256-47.256h195.188z" fill="#e5252a"/><path d="m448.968 168.463h-111.987c-17.399 0-31.504-14.105-31.504-31.504v-120.959z" fill="#ed676a"/><g fill="#fff"><path d="m163.737 353.086v31.935h-22.674v-94.082h37.534c7.199 0 13.568 1.323 19.106 3.969s9.814 6.43 12.86 11.322c3.015 4.892 4.553 10.43 4.553 16.644 0 9.168-3.292 16.491-9.876 21.998-6.553 5.476-15.568 8.214-27.043 8.214zm0-17.506h14.86c4.4 0 7.753-1.077 10.06-3.292 2.307-2.184 3.446-5.292 3.446-9.291 0-4.4-1.2-7.907-3.569-10.553-2.369-2.615-5.599-3.938-9.691-4h-15.106z"/><path d="m227.176 385.021v-94.082h30.304c8.307 0 15.783 1.877 22.428 5.661 6.615 3.753 11.814 9.076 15.537 15.968 3.723 6.861 5.599 14.552 5.63 23.074v4.338c0 8.614-1.815 16.337-5.446 23.167-3.63 6.83-8.768 12.153-15.383 16.029-6.615 3.846-13.999 5.784-22.121 5.846h-30.949zm22.675-76.576v59.132h7.876c6.522 0 11.506-2.307 14.983-6.953 3.507-4.615 5.261-11.506 5.261-20.644v-4.061c0-9.107-1.754-15.937-5.261-20.552-3.477-4.615-8.553-6.922-15.229-6.922z"/><path d="m371.992 347.548h-36.581v37.473h-22.674v-94.082h62.916v17.506h-40.242v21.659h36.581z"/></g></g></svg>