<svg xmlns="http://www.w3.org/2000/svg" version="1.1" xmlns:xlink="http://www.w3.org/1999/xlink" width="512" height="512" x="0" y="0" viewBox="0 0 512 512" style="enable-background:new 0 0 512 512" xml:space="preserve" class=""><g><path fill="#ff7146" d="M323.6 141c-13.3 0-24.1-10.8-24.1-24.1V0H134.2c-34.1 0-61.7 27.6-61.7 61.7v388.6c0 34.1 27.6 61.7 61.7 61.7h243.6c34.1 0 61.7-27.6 61.7-61.7V141z" opacity="1" data-original="#2b031a" class=""></path><g fill="#ea47a4"><path d="M323.6 141h115.9L299.5 0v116.9c0 13.3 10.8 24.1 24.1 24.1zM184.5 481h143c1.9 0 3.5 1.6 3.5 3.5s-1.6 3.5-3.5 3.5h-143c-1.9 0-3.5-1.6-3.5-3.5s1.6-3.5 3.5-3.5zM116.7 79.1h122.1c3.1 0 5.7 2.5 5.7 5.7 0 3.1-2.5 5.7-5.7 5.7H116.7c-3.1 0-5.7-2.5-5.7-5.7 0-3.1 2.5-5.7 5.7-5.7zM116.7 57.1h91.7c3.1 0 5.7 2.5 5.7 5.7 0 3.1-2.5 5.7-5.7 5.7h-91.7c-3.1 0-5.7-2.5-5.7-5.7 0-3.1 2.5-5.7 5.7-5.7zM116.7 99.3h149.7c3.1 0 5.7 2.5 5.7 5.7 0 3.1-2.5 5.7-5.7 5.7H116.7c-3.1 0-5.7-2.5-5.7-5.7 0-3.1 2.5-5.7 5.7-5.7zM197.3 466.1h117.4c2.1 0 3.8 1.7 3.8 3.8 0 2.1-1.7 3.8-3.8 3.8H197.3c-2.1 0-3.8-1.7-3.8-3.8 0-2.1 1.7-3.8 3.8-3.8zM205.8 451.1h100.4c2.1 0 3.8 1.7 3.8 3.8 0 2.1-1.7 3.8-3.8 3.8H205.8c-2.1 0-3.8-1.7-3.8-3.8 0-2.1 1.7-3.8 3.8-3.8zM169.4 247h25.9c17.6 0 26.2 9.8 26.2 27.7v11c0 17.9-8.6 27.7-26.2 27.7H187V359h-17.6zm25.9 50.4c5.6 0 8.6-2.6 8.6-10.6v-13.3c0-8-3-10.6-8.6-10.6H187v34.4h8.3zM231.1 247H258c17.6 0 26.2 9.8 26.2 27.7v56.6c0 17.9-8.6 27.7-26.2 27.7h-26.9zm26.6 96c5.6 0 9-2.9 9-10.9v-58.2c0-8-3.4-10.9-9-10.9h-9v80zM296.1 247h46.6v16h-29v31.2h22.8v16h-22.7V359h-17.6z" fill="#ffffff" opacity="1" data-original="#ea47a4" class=""></path></g></g></svg>