<svg xmlns="http://www.w3.org/2000/svg" version="1.1" xmlns:xlink="http://www.w3.org/1999/xlink" width="512" height="512" x="0" y="0" viewBox="0 0 512 512" style="enable-background:new 0 0 512 512" xml:space="preserve" class=""><g><path fill="#2d59ef" d="M359.9 141c-13.3 0-24.1-10.8-24.1-24.1V0H170.5c-34.1 0-61.7 27.6-61.7 61.7v388.6c0 34.1 27.6 61.7 61.7 61.7H414c34.1 0 61.7-27.6 61.7-61.7V141z" opacity="1" data-original="#ededed"></path><path fill="#081341" d="M359.9 141h115.9L335.8 0v116.9c0 13.3 10.8 24.1 24.1 24.1zM61.8 220h343.8c13.4 0 24.3 10.9 24.3 24.3v118.5c0 13.4-10.9 24.3-24.3 24.3H61.8c-14.1 0-25.5-11.4-25.5-25.5v-116c0-14.2 11.4-25.6 25.5-25.6z" opacity="1" data-original="#252a3f" class=""></path><path fill="#999ca3" d="M196 351v-95h23.1c7.7 0 13.6 2.1 17.5 6.4s5.8 10.3 5.8 18.1v11.8c0 7.9-1.9 14-5.8 18.1s-9.8 6.4-17.5 6.4h-4.8V351zm23.1-51.2c1.4.1 2.7-.3 3.8-1.2.5-.5 1.2-1.8 1.2-5.4v-13.6c0-3.6-.8-4.9-1.2-5.4-1-.9-2.4-1.3-3.8-1.2h-4.8v26.8z" opacity="1" data-original="#999ca3" class=""></path><path fill="#ffffff" d="M219.1 258c7.2 0 12.5 1.9 16.1 5.7 3.5 3.8 5.3 9.4 5.3 16.8v11.8c0 7.4-1.8 13-5.3 16.8s-8.9 5.7-16.1 5.7h-6.8V349H198v-91zm-6.8 13v30.8h6.8c1.9.1 3.8-.5 5.2-1.8 1.2-1.2 1.8-3.5 1.8-6.8v-13.7c0-3.3-.6-5.5-1.8-6.8-1.4-1.3-3.3-1.9-5.2-1.8z" opacity="1" data-original="#ffffff"></path><path fill="#999ca3" d="M245 351v-95h41.9v17h-23.6v23.4h18.5v17h-18.5V351z" opacity="1" data-original="#999ca3" class=""></path><path fill="#ffffff" d="M261.3 298.4h18.5v13h-18.5V349H247v-91h37.8v13h-23.5z" opacity="1" data-original="#ffffff"></path><path fill="#999ca3" d="m324 351-10.3-31.6-10.4 31.6h-17.6l16.7-48.8-15.7-46.2h19.1l9.4 29.1 9.5-29.1h17.5l-15.6 46.2 16.7 48.8z" opacity="1" data-original="#999ca3" class=""></path><path fill="#ffffff" d="m339.5 258-15 44.2 16 46.8h-15.1l-11.7-36-11.8 36h-13.4l16-46.8-15-44.2h14.9l10.8 33.5 11-33.5z" opacity="1" data-original="#ffffff"></path></g></svg>