<svg id="Layer_1" enable-background="new 0 0 512 512" viewBox="0 0 512 512" xmlns="http://www.w3.org/2000/svg"><g><path d="m448.968 168.463v280.281c0 26.099-21.157 47.256-47.256 47.256h-291.423c-26.099 0-47.256-21.157-47.256-47.256v-385.488c-.001-26.099 21.156-47.256 47.256-47.256h195.188z" fill="#00733b"/><path d="m448.968 168.463h-111.987c-17.399 0-31.504-14.105-31.504-31.504v-120.959z" fill="#4d9d76"/><g fill="#fff"><path d="m177.933 313.656 15.383-31.258h25.905l-26.305 46.641 27.012 47.41h-26.151l-15.844-31.843-15.814 31.843h-26.12l26.951-47.41-26.243-46.641h25.843z"/><path d="m249.987 359.005h39.473v17.444h-62.147v-94.051h22.674z"/><path d="m347.545 351.467c0-3.323-1.169-5.907-3.507-7.753-2.369-1.877-6.492-3.784-12.368-5.753-5.907-2-10.737-3.907-14.491-5.753-12.183-5.999-18.275-14.214-18.275-24.674 0-5.23 1.508-9.814 4.553-13.814 3.046-3.969 7.322-7.076 12.891-9.291 5.538-2.215 11.783-3.323 18.736-3.323 6.769 0 12.829 1.2 18.183 3.6 5.353 2.431 9.537 5.846 12.491 10.307 2.984 4.461 4.461 9.568 4.461 15.291h-22.613c0-3.846-1.169-6.799-3.507-8.922-2.369-2.123-5.538-3.169-9.537-3.169-4.061 0-7.261.892-9.599 2.677-2.338 1.784-3.507 4.061-3.507 6.83 0 2.4 1.292 4.584 3.877 6.553 2.584 1.969 7.107 4 13.629 6.061 6.492 2.092 11.845 4.338 16.029 6.768 10.153 5.846 15.229 13.937 15.229 24.213 0 8.245-3.107 14.706-9.291 19.383-6.215 4.707-14.706 7.045-25.536 7.045-7.599 0-14.522-1.354-20.705-4.092-6.184-2.738-10.83-6.492-13.937-11.23-3.138-4.769-4.707-10.245-4.707-16.46h22.767c0 5.046 1.292 8.768 3.907 11.137 2.584 2.4 6.83 3.6 12.676 3.6 3.753 0 6.707-.8 8.891-2.43 2.184-1.601 3.26-3.878 3.26-6.801z"/></g></g></svg>