<svg id="Layer_1" enable-background="new 0 0 512 512" viewBox="0 0 512 512" xmlns="http://www.w3.org/2000/svg"><g><path d="m448.968 168.463v280.281c0 26.099-21.157 47.256-47.256 47.256h-291.423c-26.099 0-47.256-21.157-47.256-47.256v-385.488c-.001-26.099 21.156-47.256 47.256-47.256h195.188z" fill="#ff712f"/><path d="m448.968 168.463h-111.987c-17.399 0-31.504-14.105-31.504-31.504v-120.959z" fill="#ffa785"/><g fill="#fff"><path d="m184.431 359.015h44.98v17.444h-73.254v-11.968l44.826-64.608h-45.103v-17.506h73.069v11.63z"/><path d="m263.838 376.46h-22.613v-94.082h22.613z"/><path d="m302.296 344.525v31.935h-22.674v-94.082h37.534c7.199 0 13.568 1.323 19.106 3.969s9.814 6.43 12.86 11.322c3.015 4.892 4.553 10.43 4.553 16.644 0 9.168-3.292 16.491-9.876 21.998-6.553 5.476-15.568 8.215-27.043 8.215h-14.46zm0-17.506h14.86c4.4 0 7.753-1.077 10.06-3.292 2.307-2.184 3.446-5.292 3.446-9.291 0-4.4-1.2-7.907-3.569-10.553-2.369-2.615-5.599-3.938-9.691-4h-15.106z"/></g></g></svg>