<svg width="120" height="25" viewBox="0 0 120 25" fill="none" xmlns="http://www.w3.org/2000/svg">
<mask id="mask0_2095_541" style="mask-type:luminance" maskUnits="userSpaceOnUse" x="2" y="2" width="39" height="20">
<path d="M2.4187 2.5531H40.5812V21.6343H2.4187V2.5531Z" fill="white"/>
</mask>
<g mask="url(#mask0_2095_541)">
<path d="M11.9593 21.6343C6.70937 21.6343 2.4187 17.3437 2.4187 12.0937C2.4187 6.84377 6.70937 2.5531 11.9593 2.5531C15.0441 2.5531 17.7787 4.01536 19.5278 6.28924C18.8282 7.29099 18.2089 8.31035 17.6364 9.2645C16.6188 7.16548 14.4558 5.73331 11.9593 5.73331C8.42872 5.73331 5.59891 8.56312 5.59891 12.0937C5.59891 15.6243 8.42872 18.4541 11.9593 18.4541C13.9027 18.4541 15.2089 17.7263 16.4998 16.4355C17.7906 15.1446 18.944 13.2646 20.1366 11.277C21.3292 9.28935 22.561 7.19405 24.2516 5.50352C25.9421 3.81287 28.2137 2.5531 31.0406 2.5531C36.2905 2.5531 40.5812 6.84377 40.5812 12.0937C40.5812 17.3437 36.2905 21.6343 31.0406 21.6343C27.9558 21.6343 25.2212 20.1721 23.4721 17.8982C24.1717 16.8965 24.791 15.8771 25.3635 14.9229C26.3811 17.022 28.5441 18.4541 31.0406 18.4541C34.5712 18.4541 37.401 15.6243 37.401 12.0937C37.401 8.56312 34.5712 5.73331 31.0406 5.73331C29.0972 5.73331 27.791 6.46117 26.5001 7.75197C25.2093 9.04288 24.0559 10.9228 22.8633 12.9105C21.6707 14.8981 20.4389 16.9934 18.7483 18.6839C17.0578 20.3746 14.7862 21.6343 11.9593 21.6343Z" fill="#463FE3"/>
</g>
<mask id="mask1_2095_541" style="mask-type:luminance" maskUnits="userSpaceOnUse" x="21" y="9" width="7" height="11">
<path d="M21.3507 9.5257H27.1139V19.141H21.3507V9.5257Z" fill="white"/>
</mask>
<g mask="url(#mask1_2095_541)">
<mask id="mask2_2095_541" style="mask-type:luminance" maskUnits="userSpaceOnUse" x="20" y="8" width="8" height="12">
<path d="M23.1742 19.5603L20.3156 9.94284L24.609 8.66663L27.4676 18.2841L23.1742 19.5603Z" fill="white"/>
</mask>
<g mask="url(#mask2_2095_541)">
<mask id="mask3_2095_541" style="mask-type:luminance" maskUnits="userSpaceOnUse" x="20" y="8" width="8" height="12">
<path d="M23.1742 19.5603L20.3156 9.94284L24.609 8.66663L27.4676 18.2841L23.1742 19.5603Z" fill="white"/>
</mask>
<g mask="url(#mask3_2095_541)">
<path d="M27.106 17.1089C26.22 16.152 25.4729 15.1248 25.0686 13.7645C24.6643 12.4042 24.7079 11.0652 24.9485 9.85022L21.7307 9.54181C21.207 11.1138 21.2572 13.1109 21.745 14.7523C22.233 16.3939 23.2204 18.0157 24.5791 19.1249L27.106 17.1089Z" fill="#463FE3"/>
</g>
</g>
</g>
<mask id="mask4_2095_541" style="mask-type:luminance" maskUnits="userSpaceOnUse" x="22" y="6" width="5" height="7">
<path d="M22.4257 6.7486H26.1583V12.9896H22.4257V6.7486Z" fill="white"/>
</mask>
<g mask="url(#mask4_2095_541)">
<mask id="mask5_2095_541" style="mask-type:luminance" maskUnits="userSpaceOnUse" x="21" y="6" width="6" height="8">
<path d="M21.7705 12.7228L23.5847 6.48651L26.3587 7.29358L24.5446 13.5298L21.7705 12.7228Z" fill="white"/>
</mask>
<g mask="url(#mask5_2095_541)">
<mask id="mask6_2095_541" style="mask-type:luminance" maskUnits="userSpaceOnUse" x="21" y="6" width="6" height="8">
<path d="M21.7705 12.7228L23.5847 6.48651L26.3587 7.29358L24.5446 13.5298L21.7705 12.7228Z" fill="white"/>
</mask>
<g mask="url(#mask6_2095_541)">
<path d="M24.7697 12.7661C24.6227 11.9348 24.5761 11.114 24.8327 10.2319C25.0893 9.34981 25.5823 8.6363 26.139 8.05925L24.4956 6.76379C23.6597 7.4359 22.9872 8.54053 22.6776 9.60492C22.3679 10.6693 22.337 11.8982 22.6878 12.9779L24.7697 12.7661Z" fill="#463FE3"/>
</g>
</g>
</g>
<path d="M55.885 20.3698C54.275 20.3698 52.8873 20.0248 51.722 19.3348C50.572 18.6294 49.6827 17.6557 49.054 16.4137C48.4407 15.1564 48.134 13.7074 48.134 12.0667C48.134 10.4261 48.4407 8.97708 49.054 7.71975C49.6827 6.46242 50.572 5.48108 51.722 4.77575C52.8873 4.07042 54.275 3.71775 55.885 3.71775C57.8323 3.71775 59.427 4.20075 60.669 5.16675C61.911 6.13275 62.6853 7.49742 62.992 9.26075H59.611C59.4117 8.40208 58.99 7.73508 58.346 7.25975C57.7173 6.76908 56.8893 6.52375 55.862 6.52375C54.9113 6.52375 54.091 6.75375 53.401 7.21375C52.7263 7.65842 52.205 8.29475 51.837 9.12275C51.469 9.93542 51.285 10.9167 51.285 12.0667C51.285 13.2014 51.469 14.1827 51.837 15.0107C52.205 15.8387 52.7263 16.4751 53.401 16.9197C54.091 17.3644 54.9113 17.5867 55.862 17.5867C56.8893 17.5867 57.7173 17.3644 58.346 16.9197C58.9747 16.4597 59.3887 15.8234 59.588 15.0107H62.992C62.6853 16.6821 61.911 17.9931 60.669 18.9437C59.427 19.8944 57.8323 20.3698 55.885 20.3698ZM71.2325 20.3698C69.6685 20.3698 68.2885 20.0171 67.0925 19.3117C65.8965 18.6064 64.9611 17.6327 64.2865 16.3907C63.6118 15.1334 63.2745 13.6844 63.2745 12.0437C63.2745 10.4031 63.6118 8.96175 64.2865 7.71975C64.9611 6.46242 65.8965 5.48108 67.0925 4.77575C68.2885 4.07042 69.6685 3.71775 71.2325 3.71775C72.8118 3.71775 74.1995 4.07042 75.3955 4.77575C76.5915 5.48108 77.5191 6.46242 78.1785 7.71975C78.8531 8.96175 79.1905 10.4031 79.1905 12.0437C79.1905 13.6844 78.8531 15.1334 78.1785 16.3907C77.5191 17.6327 76.5915 18.6064 75.3955 19.3117C74.1995 20.0171 72.8118 20.3698 71.2325 20.3698ZM71.2325 17.5867C72.2138 17.5867 73.0571 17.3644 73.7625 16.9197C74.4831 16.4597 75.0428 15.8157 75.4415 14.9877C75.8401 14.1597 76.0395 13.1784 76.0395 12.0437C76.0395 10.8937 75.8401 9.91242 75.4415 9.09975C75.0428 8.27175 74.4831 7.63542 73.7625 7.19075C73.0571 6.74608 72.2138 6.52375 71.2325 6.52375C70.2665 6.52375 69.4231 6.74608 68.7025 7.19075C67.9818 7.63542 67.4221 8.27175 67.0235 9.09975C66.6248 9.91242 66.4255 10.8937 66.4255 12.0437C66.4255 13.1784 66.6248 14.1597 67.0235 14.9877C67.4221 15.8157 67.9818 16.4597 68.7025 16.9197C69.4231 17.3644 70.2665 17.5867 71.2325 17.5867ZM79.9996 20.0938V3.99375H83.1046L90.5106 15.1027V3.99375H93.6156V20.0938H90.5106L83.1046 9.00775V20.0938H79.9996ZM94.9155 20.0938V3.99375H105.495V6.50075H98.0205V10.7097H104.805V13.1247H98.0205V17.5867H105.495V20.0938H94.9155ZM106.485 20.0938V3.99375H109.59V10.3647L115.409 3.99375H119.227L113.316 10.3647L119.411 20.0938H115.616L111.085 12.7797L109.59 14.3897V20.0938H106.485Z" fill="#463FE3"/>
</svg>
