<svg width="973" height="197" viewBox="0 0 973 197" fill="none" xmlns="http://www.w3.org/2000/svg">
<mask id="mask0_2021_44" style="mask-type:luminance" maskUnits="userSpaceOnUse" x="19" y="20" width="311" height="156">
<path d="M19.6306 20.7211H329.359V175.585H19.6306V20.7211Z" fill="white"/>
</mask>
<g mask="url(#mask0_2021_44)">
<path d="M97.0627 175.585C54.4539 175.585 19.6306 140.762 19.6306 98.1531C19.6306 55.5443 54.4539 20.7211 97.0627 20.7211C122.099 20.7211 144.293 32.5888 158.489 51.0437C152.811 59.1739 147.785 67.4471 143.138 75.1911C134.879 58.1553 117.324 46.5318 97.0627 46.5318C68.4082 46.5318 45.4413 69.4986 45.4413 98.1531C45.4413 126.808 68.4082 149.775 97.0627 149.775C112.836 149.775 123.437 143.867 133.914 133.391C144.39 122.914 153.751 107.656 163.43 91.5244C173.109 75.3927 183.106 58.3872 196.827 44.6668C210.548 30.9454 228.984 20.7211 251.927 20.7211C294.536 20.7211 329.359 55.5443 329.359 98.1531C329.359 140.762 294.536 175.585 251.927 175.585C226.891 175.585 204.696 163.717 190.501 145.263C196.179 137.132 201.205 128.859 205.851 121.115C214.11 138.151 231.666 149.775 251.927 149.775C280.581 149.775 303.548 126.808 303.548 98.1531C303.548 69.4986 280.581 46.5318 251.927 46.5318C236.154 46.5318 225.553 52.4391 215.076 62.9153C204.6 73.3923 195.239 88.6502 185.56 104.782C175.881 120.914 165.884 137.919 152.162 151.64C138.442 165.361 120.006 175.585 97.0627 175.585Z" fill="white"/>
</g>
<mask id="mask1_2021_44" style="mask-type:luminance" maskUnits="userSpaceOnUse" x="173" y="77" width="48" height="79">
<path d="M173.283 77.3104H220.057V155.348H173.283V77.3104Z" fill="white"/>
</mask>
<g mask="url(#mask1_2021_44)">
<mask id="mask2_2021_44" style="mask-type:luminance" maskUnits="userSpaceOnUse" x="164" y="70" width="59" height="89">
<path d="M188.083 158.751L164.882 80.6954L199.728 70.3376L222.929 148.394L188.083 158.751Z" fill="white"/>
</mask>
<g mask="url(#mask2_2021_44)">
<mask id="mask3_2021_44" style="mask-type:luminance" maskUnits="userSpaceOnUse" x="164" y="70" width="59" height="89">
<path d="M188.083 158.751L164.882 80.6954L199.728 70.3376L222.929 148.394L188.083 158.751Z" fill="white"/>
</mask>
<g mask="url(#mask3_2021_44)">
<path d="M219.994 138.856C212.803 131.089 206.739 122.753 203.458 111.712C200.177 100.672 200.531 89.805 202.483 79.9442L176.367 77.4412C172.117 90.1998 172.525 106.408 176.484 119.73C180.444 133.053 188.458 146.216 199.485 155.218L219.994 138.856Z" fill="white"/>
</g>
</g>
</g>
<mask id="mask4_2021_44" style="mask-type:luminance" maskUnits="userSpaceOnUse" x="182" y="54" width="31" height="52">
<path d="M182.008 54.7723H212.302V105.424H182.008V54.7723Z" fill="white"/>
</mask>
<g mask="url(#mask4_2021_44)">
<mask id="mask5_2021_44" style="mask-type:luminance" maskUnits="userSpaceOnUse" x="176" y="52" width="38" height="58">
<path d="M176.69 103.259L191.414 52.6453L213.928 59.1954L199.205 109.809L176.69 103.259Z" fill="white"/>
</mask>
<g mask="url(#mask5_2021_44)">
<mask id="mask6_2021_44" style="mask-type:luminance" maskUnits="userSpaceOnUse" x="176" y="52" width="38" height="58">
<path d="M176.69 103.259L191.414 52.6453L213.928 59.1954L199.205 109.809L176.69 103.259Z" fill="white"/>
</mask>
<g mask="url(#mask6_2021_44)">
<path d="M201.032 103.61C199.839 96.8632 199.46 90.2013 201.543 83.0424C203.626 75.8835 207.626 70.0926 212.145 65.4093L198.807 54.8953C192.023 60.3501 186.564 69.3153 184.052 77.9539C181.538 86.5925 181.287 96.5659 184.135 105.329L201.032 103.61Z" fill="white"/>
</g>
</g>
</g>
<path d="M453.129 165.39C440.082 165.39 428.838 162.594 419.395 157.003C410.076 151.287 402.869 143.397 397.775 133.333C392.805 123.144 390.32 111.403 390.32 98.1077C390.32 84.8127 392.805 73.071 397.775 62.8823C402.869 52.6937 410.076 44.7416 419.395 39.0261C428.838 33.3105 440.082 30.4527 453.129 30.4527C468.909 30.4527 481.831 34.3666 491.895 42.1945C501.96 50.0223 508.234 61.0807 510.719 75.3696H483.322C481.707 68.4115 478.29 63.0066 473.071 59.1548C467.977 55.1788 461.267 53.1907 452.942 53.1907C445.239 53.1907 438.591 55.0545 433 58.7821C427.533 62.3853 423.308 67.5418 420.326 74.2514C417.344 80.8367 415.853 88.7888 415.853 98.1077C415.853 107.302 417.344 115.254 420.326 121.964C423.308 128.674 427.533 133.83 433 137.433C438.591 141.037 445.239 142.838 452.942 142.838C461.267 142.838 467.977 141.037 473.071 137.433C478.165 133.706 481.52 128.549 483.136 121.964H510.719C508.234 135.507 501.96 146.131 491.895 153.834C481.831 161.538 468.909 165.39 453.129 165.39ZM577.495 165.39C564.821 165.39 553.639 162.532 543.947 156.816C534.255 151.101 526.676 143.211 521.209 133.147C515.742 122.958 513.008 111.216 513.008 97.9213C513.008 84.6264 515.742 72.9467 521.209 62.8823C526.676 52.6937 534.255 44.7416 543.947 39.0261C553.639 33.3105 564.821 30.4527 577.495 30.4527C590.293 30.4527 601.538 33.3105 611.229 39.0261C620.921 44.7416 628.438 52.6937 633.781 62.8823C639.248 72.9467 641.981 84.6264 641.981 97.9213C641.981 111.216 639.248 122.958 633.781 133.147C628.438 143.211 620.921 151.101 611.229 156.816C601.538 162.532 590.293 165.39 577.495 165.39ZM577.495 142.838C585.447 142.838 592.281 141.037 597.996 137.433C603.836 133.706 608.371 128.487 611.602 121.778C614.832 115.068 616.448 107.116 616.448 97.9213C616.448 88.6024 614.832 80.6503 611.602 74.065C608.371 67.3554 603.836 62.199 597.996 58.5957C592.281 54.9924 585.447 53.1907 577.495 53.1907C569.667 53.1907 562.833 54.9924 556.993 58.5957C551.154 62.199 546.618 67.3554 543.388 74.065C540.157 80.6503 538.542 88.6024 538.542 97.9213C538.542 107.116 540.157 115.068 543.388 121.778C546.618 128.487 551.154 133.706 556.993 137.433C562.833 141.037 569.667 142.838 577.495 142.838ZM648.538 163.153V32.6892H673.699L733.712 122.709V32.6892H758.873V163.153H733.712L673.699 73.3195V163.153H648.538ZM769.407 163.153V32.6892H855.14V53.0044H794.568V87.1114H849.549V106.681H794.568V142.838H855.14V163.153H769.407ZM863.156 163.153V32.6892H888.317V84.3157L935.47 32.6892H966.409L918.51 84.3157L967.9 163.153H937.148L900.431 103.885L888.317 116.932V163.153H863.156Z" fill="white"/>
</svg>
