<svg xmlns="http://www.w3.org/2000/svg" xmlns:xlink="http://www.w3.org/1999/xlink" width="1920" zoomAndPan="magnify" viewBox="0 0 1440 809.999993" height="1080" preserveAspectRatio="xMidYMid meet" version="1.0"><defs><clipPath id="d18817b3e0"><path d="M 81 85.5 L 1359 85.5 L 1359 724.5 L 81 724.5 Z M 81 85.5 " clip-rule="nonzero"/></clipPath><clipPath id="7f1357feb2"><path d="M 715 319 L 908 319 L 908 641 L 715 641 Z M 715 319 " clip-rule="nonzero"/></clipPath><clipPath id="7dd6aba7fd"><path d="M 776.066406 655.042969 L 680.335938 332.96875 L 824.117188 290.230469 L 919.847656 612.304688 Z M 776.066406 655.042969 " clip-rule="nonzero"/></clipPath><clipPath id="34f2da22e3"><path d="M 776.066406 655.042969 L 680.335938 332.96875 L 824.117188 290.230469 L 919.847656 612.304688 Z M 776.066406 655.042969 " clip-rule="nonzero"/></clipPath><clipPath id="f1614adce8"><path d="M 751 226 L 876 226 L 876 435 L 751 435 Z M 751 226 " clip-rule="nonzero"/></clipPath><clipPath id="67b086832a"><path d="M 729.058594 426.066406 L 789.8125 217.222656 L 882.710938 244.25 L 821.957031 453.089844 Z M 729.058594 426.066406 " clip-rule="nonzero"/></clipPath><clipPath id="9f13ba5cf3"><path d="M 729.058594 426.066406 L 789.8125 217.222656 L 882.710938 244.25 L 821.957031 453.089844 Z M 729.058594 426.066406 " clip-rule="nonzero"/></clipPath></defs><g clip-path="url(#d18817b3e0)"><path fill="#ffffff" d="M 400.5 724.5 C 224.6875 724.5 81 580.8125 81 405 C 81 229.1875 224.6875 85.5 400.5 85.5 C 503.804688 85.5 595.382812 134.46875 653.957031 210.617188 C 630.527344 244.164062 609.789062 278.300781 590.617188 310.253906 C 556.539062 239.960938 484.101562 192 400.5 192 C 282.265625 192 187.5 286.765625 187.5 405 C 187.5 523.234375 282.265625 618 400.5 618 C 465.582031 618 509.324219 593.625 552.554688 550.398438 C 595.78125 507.167969 634.40625 444.210938 674.34375 377.648438 C 714.28125 311.085938 755.53125 240.917969 812.148438 184.304688 C 868.761719 127.6875 944.832031 85.5 1039.5 85.5 C 1215.3125 85.5 1359 229.1875 1359 405 C 1359 580.8125 1215.3125 724.5 1039.5 724.5 C 936.195312 724.5 844.617188 675.53125 786.042969 599.382812 C 809.472656 565.835938 830.210938 531.699219 849.382812 499.746094 C 883.460938 570.039062 955.898438 618 1039.5 618 C 1157.734375 618 1252.5 523.234375 1252.5 405 C 1252.5 286.765625 1157.734375 192 1039.5 192 C 974.417969 192 930.675781 216.375 887.445312 259.601562 C 844.21875 302.832031 805.59375 365.789062 765.65625 432.351562 C 725.71875 498.914062 684.46875 569.082031 627.851562 625.695312 C 571.238281 682.3125 495.167969 724.5 400.5 724.5 Z M 400.5 724.5 " fill-opacity="1" fill-rule="nonzero"/></g><g clip-path="url(#7f1357feb2)"><g clip-path="url(#7dd6aba7fd)"><g clip-path="url(#34f2da22e3)"><path fill="#ffffff" d="M 907.738281 572.949219 C 878.066406 540.902344 853.046875 506.503906 839.507812 460.949219 C 825.96875 415.394531 827.429688 370.554688 835.484375 329.867188 L 727.726562 319.539062 C 710.1875 372.183594 711.871094 439.0625 728.207031 494.03125 C 744.546875 549.003906 777.613281 603.316406 823.113281 640.460938 Z M 907.738281 572.949219 " fill-opacity="1" fill-rule="nonzero"/></g></g></g><g clip-path="url(#f1614adce8)"><g clip-path="url(#67b086832a)"><g clip-path="url(#9f13ba5cf3)"><path fill="#ffffff" d="M 829.496094 427.515625 C 824.574219 399.675781 823.011719 372.1875 831.605469 342.648438 C 840.199219 313.109375 856.707031 289.214844 875.351562 269.890625 L 820.316406 226.507812 C 792.324219 249.015625 769.800781 286.007812 759.433594 321.652344 C 749.0625 357.296875 748.027344 398.449219 759.777344 434.609375 Z M 829.496094 427.515625 " fill-opacity="1" fill-rule="nonzero"/></g></g></g></svg>